<?xml version="1.0" standalone="no"?><!DOCTYPE svg PUBLIC "-//W3C//DTD SVG 1.1//EN" "http://www.w3.org/Graphics/SVG/1.1/DTD/svg11.dtd"><svg t="1587518861478" class="icon" viewBox="0 0 1024 1024" version="1.1" xmlns="http://www.w3.org/2000/svg" p-id="2264" xmlns:xlink="http://www.w3.org/1999/xlink" width="81" height="81"><defs><style type="text/css"></style></defs><path d="M0 0h1024v1024H0z" fill="#FFFFFF" p-id="2265"></path><path d="M607.0784 667.6992l24.576-15.2576c9.6768-5.7856 17.6128-10.1376 25.5488-13.7216 55.808-25.3952 104.96-7.424 169.984 68.608 40.2432 47.0528 52.1728 88.7808 36.6592 125.952-11.5712 27.8016-33.8944 46.9504-73.5744 70.656-2.56 1.536-25.4464 14.848-31.2832 18.432-92.416 57.0368-304.1792-73.472-456.4992-296.4992C149.76 402.2784 110.2336 163.84 203.8784 105.984l12.3392-7.8336 13.4144-8.704C276.992 58.88 307.3024 46.6432 343.2448 52.736c35.84 6.144 66.4064 32.6656 92.16 81.0496 54.4768 102.2464 42.496 150.784-27.5456 194.8672-5.0688 3.2768-22.9376 14.0288-24.576 15.104-17.2032 10.5984 11.8784 81.7664 79.4624 180.736 68.4032 100.0448 125.5936 154.7264 144.2816 143.2064h0.0512z" fill="#333333" p-id="2266"></path></svg>