<?xml version="1.0" standalone="no"?><!DOCTYPE svg PUBLIC "-//W3C//DTD SVG 1.1//EN" "http://www.w3.org/Graphics/SVG/1.1/DTD/svg11.dtd"><svg t="1548229096757" class="icon" style="" viewBox="0 0 1236 1024" version="1.1" xmlns="http://www.w3.org/2000/svg" p-id="1143" xmlns:xlink="http://www.w3.org/1999/xlink" width="241.40625" height="200"><defs><style type="text/css"></style></defs><path d="M1211.00346 972.02717C1182.563309 996.294038 1159.475007 1023.188528 1159.475007 1023.188528H103.267309s-17.408 5.177962-51.509132-25.580679C17.637724 966.868528 0.229724 920.885132 0.229724 920.885132V255.787472s-4.424453-55.064151 25.754566-76.742038C56.163309 157.386868 77.512743 153.484075 77.512743 153.484075h231.849056s8.192-43.858113 25.754566-76.742037C353.103988 43.085283 386.644818 0 386.644818 0h463.698113s40.554264 46.137962 51.528453 76.742038A3062.339623 3062.339623 0 0 1 927.62595 153.484075h206.094491s64.202868 24.807849 77.283019 51.142038A5074.403019 5074.403019 0 0 0 1236.758026 255.787472v665.09766s2.666264 26.87517-25.754566 51.142038zM618.493875 307.315925c-156.382189 0-283.164981 125.836075-283.164981 281.059018S462.111686 869.433962 618.493875 869.433962c156.382189 0 283.164981-125.836075 283.164981-281.059019S774.876063 307.315925 618.493875 307.315925z m0 485.433962c-113.702642 0-205.881962-91.503094-205.881963-204.374944S504.791233 384 618.493875 384c113.702642 0 205.881962 91.503094 205.881962 204.374943S732.196516 792.749887 618.493875 792.749887z" fill="#c0c0c0" p-id="1144"></path></svg>